<svg version="1.1" viewBox="0 0 1970 1970" width="300" height="300" xmlns="http://www.w3.org/2000/svg"><path transform="translate(953)" d="m0 0h67l23 3 20 4 25 7 18 6 20 8 23 12 14 8 15 10 16 12 10 8 8 8 8 7 15 15 14 16 14 19 10 15 10 18 13 26 7 20 4 11 5 17 5 24 4 27 1 24v18l-1 24-4 26-3 16-6 23-4 12-8 21-10 22-6 11-11 18-10 16-8 14-14 24-8 13-5 10-7 11-5 10-9 15-11 19-12 20-5 10-12 20-13 23-10 17-12 20-3 6-8 14-11 19-16 28-13 22-9 16-10 17-30 52-12 21-7 12-8 13-8 7-9 1-7-3-6-7-9-16-13-22-9-16-21-36-9-16-11-19-14-24-8-14-14-24-20-35-9-15-6-11-14-24-9-16-10-17-13-22-6-11-14-24-9-16-10-17-12-21-6-10-13-23-8-12-9-15-10-19-5-10-9-23-7-22-6-24-4-26-1-9-2-6v-55l2-6 3-22 3-16 6-24 7-21 12-29 12-22 11-18 8-11 6-8 9-11 11-12 28-28 12-9 10-8 15-10 20-12 28-14 20-7 21-7 24-6 16-3zm29 123-27 3-21 5-12 4-9 4-16 8-15 9-13 10-11 10-5 5-9 10-13 18-8 14-8 17-7 22-3 16-2 16v26l3 24 6 22 9 21 8 15 10 15 10 12 7 8 12 11 15 11 22 13 25 10 18 5 12 2 11 1h32l22-3 20-6 17-7 16-8 14-9 10-8 11-9 10-10 7-9 8-11 9-14 9-19 6-17 4-16 3-17 1-10v-19l-4-28-5-19-6-16-12-23-8-12-8-10-9-10-5-5-14-13-9-6-13-8-15-8-15-6-21-6-17-3-19-2z" fill="#FD0000" /><path transform="translate(979,181)" d="m0 0h14l18 2 17 5 17 7 11 7 10 8 12 11 9 10 9 14 7 14 4 11 3 12 2 14v23l-3 18-4 13-5 12-7 13-7 9-9 10-12 12-10 7-14 8-11 5-14 4-16 3h-28l-20-4-19-7-16-9-9-7-10-9-9-9-6-8-9-14-4-8-6-18-3-14-1-8v-21l4-23 4-12 9-19 8-11 11-13 9-9 17-12 16-8 24-7z" fill="#FD0000" /><path transform="translate(953)" d="m0 0h67l23 3 20 4 25 7 18 6 20 8 23 12 14 8 15 10 16 12 10 8 8 8 8 7 15 15 14 16 14 19 10 15 10 18 13 26 7 20 4 11 5 17 5 24 4 27 1 24v18l-1 24-4 26-3 16-6 23-4 12-8 21-10 22-6 11-11 18-10 16-8 14-14 24-8 13-5 10-7 11-5 10-9 15-11 19-12 20-5 10-12 20-13 23-10 17-12 20-3 6-8 14-11 19-16 28-13 22-9 16-10 17-30 52-12 21-7 12-8 13-8 7-9 1-7-3-6-7-9-16-13-22-9-16-21-36-9-16-11-19-14-24-8-14-14-24-20-35-9-15-6-11-14-24-9-16-10-17-13-22-6-11-14-24-9-16-10-17-12-21-6-10-13-23-8-12-9-15-10-19-5-10-9-23-7-22-6-24-4-26-1-9-2-6v-55l2-6 3-22 3-16 6-24 7-21 12-29 12-22 11-18 8-11 6-8 9-11 11-12 28-28 12-9 10-8 15-10 20-12 28-14 20-7 21-7 24-6 16-3zm11 14-27 3-19 4-24 6-20 7-14 5-15 8-7 3-18 10-9 6-16 11-12 10-6 4-4 5-8 7-16 16-7 8-9 11v2h-2l-16 24-12 21-9 18-4 11-5 11-5 17-4 13-3 13-2 12-2 14-1 14h-2v51l2 5 2 19 4 20 5 21 10 29 4 8 4 11 10 18 7 12 7 11 6 9 6 11 5 9 8 14 13 22 12 21 7 12 8 14 9 15 6 11 12 20 6 11 9 15 6 11 9 15 6 11 10 17 5 9 13 22 6 11 8 14 7 11 3 6 13 22 6 11 12 20 5 10 7 11 6 11 13 22 6 11 4 7 11 19 3 3 4-5 5-9 10-17 6-11 9-15 6-11 12-21 10-17 6-10v-3h2l5-10 11-18 6-11 13-22 6-11 9-16 6-9 5-10 9-15 9-16 8-13 6-11 6-10 10-18 9-15v-3h2l8-15 8-13 10-18 11-18 5-10 8-13 5-9 6-10 12-21 7-10 15-27 7-15 6-13 6-16 2-8 4-13 3-12 4-25 2-13 1-24v-14l-1-24-4-27-5-24-2-4-2-9-6-17-5-14-5-9-4-10-6-11-6-10-7-11-10-14-11-15-5-5-15-16-7-7-8-7-3-3h-2v-2l-19-14-14-10-10-6-18-10-12-6-13-5-9-4-22-7-17-4-6-2-12-2-23-3-9-1z" /><path transform="translate(980,108)" d="m0 0h13l26 3 18 4 20 6 8 4 12 5 20 12 16 12v2l4 2 13 12v2h2l5 6v2h2l4 5v2h2l3 5 9 14 4 7 8 16 7 19 5 19 4 29v23l-3 23-4 18-6 18-6 14-9 17-8 11-4 7-8 9-7 8-12 12-5 4h-2v2l-14 10-12 8-17 8-11 5-19 6-11 3-22 3h-36l-16-2-14-3-15-4-20-8-16-8-16-10-13-10-7-6v-2l-4-2-11-11-4-5v-2h-2l-4-6-8-11-10-18-8-17-6-17-4-17-1-9-1-2-1-13v-30l3-24 6-22 7-19 3-7h2l1-5 8-14 11-15 9-11 10-11 11-9 8-7 15-10 16-9 10-5 30-10 23-4zm2 15-27 3-21 5-12 4-9 4-16 8-15 9-13 10-11 10-5 5-9 10-13 18-8 14-8 17-7 22-3 16-2 16v26l3 24 6 22 9 21 8 15 10 15 10 12 7 8 12 11 15 11 22 13 25 10 18 5 12 2 11 1h32l22-3 20-6 17-7 16-8 14-9 10-8 11-9 10-10 7-9 8-11 9-14 9-19 6-17 4-16 3-17 1-10v-19l-4-28-5-19-6-16-12-23-8-12-8-10-9-10-5-5-14-13-9-6-13-8-15-8-15-6-21-6-17-3-19-2z" /><path transform="translate(979,181)" d="m0 0h14l18 2 17 5 17 7 11 7 10 8 12 11 9 10 9 14 7 14 4 11 3 12 2 14v23l-3 18-4 13-5 12-7 13-7 9-9 10-12 12-10 7-14 8-11 5-14 4-16 3h-28l-20-4-19-7-16-9-9-7-10-9-9-9-6-8-9-14-4-8-6-18-3-14-1-8v-21l4-23 4-12 9-19 8-11 11-13 9-9 17-12 16-8 24-7zm2 15-21 3-18 6-12 6-14 10-10 9-13 16-9 17-3 7-3 10-3 19v17l3 18 4 12 5 12 7 11 6 8 9 10 10 9 16 10 14 6 9 3 16 3h24l19-4 14-5 13-7 14-10 13-13 6-8 5-7 7-14 5-16 3-17v-19l-3-18-3-10-6-14-9-14-12-14-13-11-16-10-15-6-8-2-13-2-8-1z" /></svg>